<?xml version="1.0" encoding="UTF-8"?>
<!DOCTYPE svg PUBLIC "-//W3C//DTD SVG 1.1//EN" "http://www.w3.org/Graphics/SVG/1.1/DTD/svg11.dtd">
<svg xmlns="http://www.w3.org/2000/svg" version="1.1" width="64px" height="64px" style="shape-rendering:geometricPrecision; text-rendering:geometricPrecision; image-rendering:optimizeQuality; fill-rule:evenodd; clip-rule:evenodd" xmlns:xlink="http://www.w3.org/1999/xlink">
<g><path style="opacity:0.686" fill="#090803" d="M 40.5,-0.5 C 41.5,-0.5 42.5,-0.5 43.5,-0.5C 44.1717,3.18827 45.0051,6.85494 46,10.5C 48.1851,8.45976 50.6851,7.12643 53.5,6.5C 54.1587,9.45517 54.4921,12.4552 54.5,15.5C 52.9054,13.8888 51.7388,11.8888 51,9.5C 49.0496,11.3877 46.8829,12.5544 44.5,13C 43.6903,9.79748 42.6903,6.63081 41.5,3.5C 40.9954,5.76947 39.6621,7.1028 37.5,7.5C 37.9402,4.62021 38.9402,1.95354 40.5,-0.5 Z"/></g>
<g><path style="opacity:0.997" fill="#efe35a" d="M 54.5,15.5 C 54.5,15.8333 54.5,16.1667 54.5,16.5C 52.9328,17.6808 52.0995,19.3474 52,21.5C 48.1896,17.1039 45.8562,17.7705 45,23.5C 39.0084,20.034 34.3417,21.3674 31,27.5C 24.5888,22.855 19.5888,24.1883 16,31.5C 15.2336,24.2156 11.4002,21.549 4.5,23.5C 3.54811,21.9547 3.21478,20.288 3.5,18.5C 6.16667,18.5 8.83333,18.5 11.5,18.5C 10.9426,16.0509 10.9426,13.7175 11.5,11.5C 15.0735,14.645 19.0735,15.9784 23.5,15.5C 24.5686,12.4606 25.7353,9.46063 27,6.5C 28.9177,10.0039 31.0843,13.3372 33.5,16.5C 34.8924,15.3947 36.059,14.0614 37,12.5C 37.7401,11.2506 37.5735,10.2506 36.5,9.5C 36.8333,8.83333 37.1667,8.16667 37.5,7.5C 39.6621,7.1028 40.9954,5.76947 41.5,3.5C 42.6903,6.63081 43.6903,9.79748 44.5,13C 46.8829,12.5544 49.0496,11.3877 51,9.5C 51.7388,11.8888 52.9054,13.8888 54.5,15.5 Z"/></g>
<g><path style="opacity:1" fill="#cb6b72" d="M 2.5,37.5 C 2.5,37.1667 2.5,36.8333 2.5,36.5C 2.92342,35.7354 3.25675,34.9021 3.5,34C 2.59382,31.2094 1.92716,28.3761 1.5,25.5C 4.79889,24.6239 8.13222,24.4572 11.5,25C 12.5857,29.6985 14.5857,33.8652 17.5,37.5C 16.1675,42.1029 13.0009,44.4363 8,44.5C 6.30179,42.1224 4.46846,39.789 2.5,37.5 Z"/></g>
<g><path style="opacity:1" fill="#15100a" d="M 36.5,9.5 C 37.5735,10.2506 37.7401,11.2506 37,12.5C 36.059,14.0614 34.8924,15.3947 33.5,16.5C 31.0843,13.3372 28.9177,10.0039 27,6.5C 25.7353,9.46063 24.5686,12.4606 23.5,15.5C 19.0735,15.9784 15.0735,14.645 11.5,11.5C 10.9426,13.7175 10.9426,16.0509 11.5,18.5C 8.83333,18.5 6.16667,18.5 3.5,18.5C 3.21478,20.288 3.54811,21.9547 4.5,23.5C 11.4002,21.549 15.2336,24.2156 16,31.5C 19.5888,24.1883 24.5888,22.855 31,27.5C 34.3417,21.3674 39.0084,20.034 45,23.5C 45.8562,17.7705 48.1896,17.1039 52,21.5C 52.0995,19.3474 52.9328,17.6808 54.5,16.5C 56.3904,16.2965 57.8904,16.9632 59,18.5C 60.2742,21.3911 61.7742,24.0578 63.5,26.5C 63.5,28.1667 63.5,29.8333 63.5,31.5C 61.6943,32.0241 60.0276,32.6908 58.5,33.5C 56.4086,33.6816 54.4086,33.3482 52.5,32.5C 51.3265,35.2789 49.4932,35.9455 47,34.5C 44.7004,37.7624 41.8671,38.7624 38.5,37.5C 43.879,36.2917 46.379,32.9583 46,27.5C 42.3854,22.5773 38.3854,22.244 34,26.5C 32.8613,30.4211 33.6946,33.7544 36.5,36.5C 35.1266,36.3433 33.7932,36.51 32.5,37C 28.8242,41.7224 24.4908,42.5557 19.5,39.5C 17.8103,41.5193 16.1436,43.5193 14.5,45.5C 6.02991,49.7073 2.02991,47.0407 2.5,37.5C 4.46846,39.789 6.30179,42.1224 8,44.5C 13.0009,44.4363 16.1675,42.1029 17.5,37.5C 14.5857,33.8652 12.5857,29.6985 11.5,25C 8.13222,24.4572 4.79889,24.6239 1.5,25.5C 1.92716,28.3761 2.59382,31.2094 3.5,34C 3.25675,34.9021 2.92342,35.7354 2.5,36.5C 1.31271,34.9275 0.312714,33.2608 -0.5,31.5C -0.5,29.1667 -0.5,26.8333 -0.5,24.5C 0.643141,24.0919 1.64314,23.4252 2.5,22.5C 0.91374,20.8273 0.247073,18.8273 0.5,16.5C 3.16667,16.5 5.83333,16.5 8.5,16.5C 8.5,13.8333 8.5,11.1667 8.5,8.5C 13.1063,9.55289 17.2729,11.5529 21,14.5C 22.3333,11.1667 23.6667,7.83333 25,4.5C 25.5613,3.97814 26.228,3.6448 27,3.5C 29.5659,6.28775 31.8993,9.28775 34,12.5C 34.3768,11.0577 35.2101,10.0577 36.5,9.5 Z"/></g>
<g><path style="opacity:1" fill="#201911" d="M 4.5,26.5 C 6.5273,26.3379 8.5273,26.5045 10.5,27C 11.4786,31.5166 9.47857,33.35 4.5,32.5C 3.72487,30.3881 3.72487,28.3881 4.5,26.5 Z"/></g>
<g><path style="opacity:1" fill="#efdd4e" d="M 6.5,28.5 C 7.67504,28.281 8.67504,28.6143 9.5,29.5C 7.94835,30.7979 6.94835,30.4646 6.5,28.5 Z"/></g>
<g><path style="opacity:1" fill="#c76b71" d="M 54.5,18.5 C 57.7097,21.2469 60.0431,24.7469 61.5,29C 61.1667,29.5 60.8333,30 60.5,30.5C 57.2397,23.5649 55.9063,23.8982 56.5,31.5C 53.7081,31.5479 51.8747,30.2146 51,27.5C 50.8078,29.5767 50.3078,31.5767 49.5,33.5C 47.4771,29.2948 47.1438,24.9615 48.5,20.5C 49.9387,22.3603 51.6053,24.027 53.5,25.5C 54.4742,23.2573 54.8076,20.924 54.5,18.5 Z"/></g>
<g><path style="opacity:1" fill="#c56b71" d="M 38.5,37.5 C 37.5084,37.6716 36.8417,37.3382 36.5,36.5C 33.6946,33.7544 32.8613,30.4211 34,26.5C 38.3854,22.244 42.3854,22.5773 46,27.5C 46.379,32.9583 43.879,36.2917 38.5,37.5 Z"/></g>
<g><path style="opacity:1" fill="#1a140f" d="M 37.5,25.5 C 43.9918,25.6582 45.6585,28.4916 42.5,34C 35.4159,34.475 33.7492,31.6417 37.5,25.5 Z"/></g>
<g><path style="opacity:1" fill="#e7de5b" d="M 37.5,27.5 C 41.6759,26.8307 43.0093,28.3307 41.5,32C 40.2068,32.49 38.8734,32.6567 37.5,32.5C 37.5,30.8333 37.5,29.1667 37.5,27.5 Z"/></g>
<g><path style="opacity:1" fill="#ca6c73" d="M 22.5,26.5 C 30.8448,26.6908 33.1781,30.5241 29.5,38C 21.9505,40.9838 18.4505,38.4838 19,30.5C 19.6897,28.6498 20.8564,27.3164 22.5,26.5 Z"/></g>
<g><path style="opacity:1" fill="#1a140f" d="M 22.5,28.5 C 29.494,28.4149 31.1607,31.2482 27.5,37C 20.4159,37.475 18.7492,34.6417 22.5,28.5 Z"/></g>
<g><path style="opacity:1" fill="#f4ea60" d="M 23.5,30.5 C 27.1612,30.3501 28.1612,31.8501 26.5,35C 22.7071,35.4866 21.7071,33.9866 23.5,30.5 Z"/></g>
<g><path style="opacity:1" fill="#ece058" d="M 58.5,33.5 C 58.5,33.8333 58.5,34.1667 58.5,34.5C 57.9569,34.56 57.6236,34.8933 57.5,35.5C 58.1667,36.8333 58.8333,38.1667 59.5,39.5C 55.2172,40.4922 50.8839,40.8256 46.5,40.5C 46.0482,44.1629 45.5482,47.8296 45,51.5C 42.2615,49.0926 39.2615,47.0926 36,45.5C 34.0978,47.6268 32.4312,49.9602 31,52.5C 28.954,50.6239 27.1207,48.6239 25.5,46.5C 21.8323,49.0046 20.6656,52.3379 22,56.5C 20.3333,57.8333 18.6667,59.1667 17,60.5C 18.1904,57.7274 17.5237,55.3941 15,53.5C 15.1049,50.9715 14.9383,48.6382 14.5,46.5C 14.5,46.1667 14.5,45.8333 14.5,45.5C 16.1436,43.5193 17.8103,41.5193 19.5,39.5C 24.4908,42.5557 28.8242,41.7224 32.5,37C 33.7932,36.51 35.1266,36.3433 36.5,36.5C 36.8417,37.3382 37.5084,37.6716 38.5,37.5C 41.8671,38.7624 44.7004,37.7624 47,34.5C 49.4932,35.9455 51.3265,35.2789 52.5,32.5C 54.4086,33.3482 56.4086,33.6816 58.5,33.5 Z"/></g>
<g><path style="opacity:0.683" fill="#0e0c04" d="M 58.5,34.5 C 61.3917,36.762 62.3917,39.5953 61.5,43C 57.2538,42.6333 52.9204,42.4666 48.5,42.5C 48.7129,46.5162 48.0462,50.3496 46.5,54C 42.9456,53.1302 39.779,51.2969 37,48.5C 35.3023,51.1899 33.3023,53.5232 31,55.5C 29.3371,53.6716 27.5038,52.0049 25.5,50.5C 25.1133,52.7308 24.9466,55.0641 25,57.5C 22.3123,59.364 19.8123,61.364 17.5,63.5C 16.5,63.5 15.5,63.5 14.5,63.5C 13.2453,61.7201 13.2453,59.8868 14.5,58C 10.591,54.1483 10.591,50.3149 14.5,46.5C 14.9383,48.6382 15.1049,50.9715 15,53.5C 17.5237,55.3941 18.1904,57.7274 17,60.5C 18.6667,59.1667 20.3333,57.8333 22,56.5C 20.6656,52.3379 21.8323,49.0046 25.5,46.5C 27.1207,48.6239 28.954,50.6239 31,52.5C 32.4312,49.9602 34.0978,47.6268 36,45.5C 39.2615,47.0926 42.2615,49.0926 45,51.5C 45.5482,47.8296 46.0482,44.1629 46.5,40.5C 50.8839,40.8256 55.2172,40.4922 59.5,39.5C 58.8333,38.1667 58.1667,36.8333 57.5,35.5C 57.6236,34.8933 57.9569,34.56 58.5,34.5 Z"/></g>
<g><path style="opacity:1" fill="#19110e" d="M 6.5,34.5 C 9.1873,34.3359 11.854,34.5026 14.5,35C 15.705,40.3094 13.3717,42.8094 7.5,42.5C 6.90843,39.8728 6.5751,37.2062 6.5,34.5 Z"/></g>
<g><path style="opacity:1" fill="#d6c443" d="M 9.5,35.5 C 13.6518,35.6308 14.3185,37.1308 11.5,40C 10.552,40.4828 9.55198,40.6495 8.5,40.5C 8.36596,38.7085 8.69929,37.0418 9.5,35.5 Z"/></g>
</svg>
